<?xml version="1.0" encoding="utf-8"?>
<!-- Generator: Adobe Illustrator 26.0.1, SVG Export Plug-In . SVG Version: 6.00 Build 0)  -->
<svg version="1.0" id="Layer_1" xmlns="http://www.w3.org/2000/svg" xmlns:xlink="http://www.w3.org/1999/xlink" x="0px" y="0px"
	 viewBox="0 0 400 400" enable-background="new 0 0 400 400" xml:space="preserve">
<g>
	<circle fill="#E9F6FF" cx="201.6" cy="200.9" r="199.1"/>
	<g>
		<g>
			<g>
				<defs>
					<circle id="SVGID_1_" cx="201.6" cy="200.9" r="199.1"/>
				</defs>
				<clipPath id="SVGID_00000031179497026535506220000000275048038811473579_">
					<use xlink:href="#SVGID_1_"  overflow="visible"/>
				</clipPath>
				<g clip-path="url(#SVGID_00000031179497026535506220000000275048038811473579_)">
					<g>
						<g>
							<g>
								<path fill="#FDB47D" d="M195.4,195.1c-5.6,3.4-12.6,3.4-19,2.5c-2.9-0.4-6.1-1.1-8.1-3.3c-2.3-2.4-3-6.5-1-9
									c3.1-3.8,7.6-6.1,12.4-7.4c4.7-1.2,9.6-1.5,14.5-1.7C196.3,182.1,196.6,189,195.4,195.1z"/>
							</g>
							<g>
								<path fill="#FDB47D" d="M258,352c16.4-15.4,29-35.1,34.1-56.9c5.1-21.9,2.3-45.8-9.5-65c-8.3-13.4-20.4-23.9-32.3-34.2
									c-14,0.6-26,5.8-37.9,13.3c-11.8,7.5-22.2,17-32.5,26.4c1.2,8.8,6.4,16.4,10.9,24c2.5,4.2,5,8.5,7.3,12.9
									c7.9,15.1,14.3,31,23.3,45.5C230.4,332.6,242.3,345.4,258,352z"/>
							</g>
							<path fill="#C6907B" d="M197.9,258.2c0.2,0,0.4-0.1,0.5-0.3c3.3-7,8.3-13,14.6-17.4c0.3-0.2,0.3-0.6,0.1-0.8
								c-0.2-0.3-0.6-0.3-0.8-0.1c-6.4,4.6-11.6,10.7-15,17.9c-0.1,0.3,0,0.6,0.3,0.8C197.7,258.2,197.8,258.2,197.9,258.2z"/>
							<g>
								<path fill="#FDB47D" d="M175,225.9c-1.7,0.7-3.2,1.9-3.9,3.5c-0.9,2-0.3,4.5,1,6.3c1.4,1.8,3.4,2.9,5.5,3.5
									c1.5,0.4,3.1,0.7,4.6,0.4c5.3-0.9,7.5-7.1,5-11.6C185.1,224.3,178.4,224.5,175,225.9z"/>
							</g>
							<g>
								<path fill="#FDB47D" d="M180.7,199.5c-1.8,0.1-3.5,0.3-5.2,1c-2.4,1-4.3,3-5.5,5.4c-1.1,2.3-1.5,5-1.4,7.6
									c0.2,2.9,1.2,6,3.8,7.3c2.1,1.1,4.7,0.6,6.8-0.5s3.9-2.7,5.9-4c1.7-1.1,3.5-2,4.7-3.5c2.1-2.7,3.1-8.7,0.9-11.6
									C188.6,198.6,183.6,199.3,180.7,199.5z"/>
							</g>
							<g>
								<path fill="#E2B298" d="M188.1,176.5c-3.5-1.7-7-3.8-9.1-7.2c-2-3.3-2.2-8,0.4-10.9c1.7-1.9,4.4-2.6,7-2.5
									c2.5,0.1,5,1,7.3,2c0.5,3.2,0.1,6.4-1,9.5C191.7,170.4,189.7,173.7,188.1,176.5z"/>
							</g>
							<g>
								<path fill="#5271FF" d="M190.2,250.1h64.2c4.7,0,8.5-3.8,8.5-8.5v-149c0-4.7-3.8-8.5-8.5-8.5h-64.2c-4.7,0-8.5,3.8-8.5,8.5
									v149C181.7,246.3,185.5,250.1,190.2,250.1z"/>
								<path fill="#E9F6FF" d="M190.2,246.3h64.3c2.8,0,5.2-2.3,5.2-5.2V92.9c0-2.8-2.3-5.2-5.2-5.2h-64.3c-2.8,0-5.2,2.3-5.2,5.2
									v148.2C185,244,187.3,246.3,190.2,246.3z"/>
							</g>
							<g>
								<path fill="#FDB47D" d="M185.1,242.2c0.3-2-0.2-4-1-5.8c-1.1-2.7-2.9-5.1-5-7c-1.3-1.2-2.8-2.2-4.6-2.2
									c-2.3,0-4.2,1.8-5,3.9c-0.8,2.1-0.6,4.5-0.2,6.7c0.4,2,0.9,3.9,1.9,5.7c0.4,0.8,1,1.5,1.7,2.1c0.9,0.7,2,0.9,3.1,1.1
									C180,247.4,184.4,246.8,185.1,242.2z"/>
							</g>
							<g>
								<path fill="#FDB47D" d="M252.9,279.8c-2.3,12,0.7,24.5,8.3,34c2.1,2.6,4.5,5,7.3,6.8c5.1,3.2,11.7,4.3,17.4,2.1
									c5.5-2.1,9.7-6.9,12.2-12.3s3.4-11.3,3.9-17.2c1.5-14.6,3.4-30.8-1.5-44.6c-6.5-18.2-14.2-35.8-22.9-53.1
									c-0.6-1.2-0.8-2.5-0.7-3.8c0.5-4.2,0.7-8.4,0.8-12.6c0-1.1-0.6-2.2-1.6-2.6c-3.1-1.5-7.2-0.5-10,1.8
									c-3.3,2.8-4.8,7-5.7,11.2c-1.8,9.1-0.4,18.7,3.7,27c2,4.1,0.7,8.7,1.7,13.2c1.4,6.4,4.2,12.8,2.7,19.2
									C257.7,256.2,255.4,267,252.9,279.8z"/>
							</g>
							<g>
								<path fill="#FDB47D" d="M316.9,436.7c-13-14.5-22.4-31.7-32.7-48.3c-5-8.1-10.3-16-16.3-23.4c-3-3.7-6.3-7.3-9.7-10.7
									c-2.5-2.5-8.6-5.8-9.7-9.1c-1.1-3.4,2.8-8.7,4.3-11.6c2.3-4.5,4.8-8.9,7.3-13.3c5.2-8.7,10.9-17.1,17.2-25
									c1.1-1.4,2.3-2.9,3.4-4.3c6-7.3,12.7-14.4,21.3-18.4c0,7,0.7,13.4,1.9,20.3c2,11.2,7.1,21.6,13.6,31
									c6.5,9.3,14.2,17.7,22,26c8,8.6,16,17.1,23.9,25.7C356.8,401.7,340.4,423,316.9,436.7z"/>
							</g>
							<path fill="#FB9952" d="M274.6,193.9c0.1,0,0.2,0,0.3-0.1c0.3-0.2,0.4-0.5,0.2-0.8c-1.4-2.3-2.2-5.1-2.7-8.9
								c1-2,2.5-3.7,4.4-5.1c0.3-0.2,0.3-0.6,0.1-0.8c-0.2-0.3-0.6-0.3-0.8-0.1c-2,1.5-3.7,3.4-4.8,5.6c-0.1,0.1-0.1,0.2-0.1,0.3
								c0.5,4.1,1.4,7,2.9,9.5C274.2,193.8,274.4,193.9,274.6,193.9z"/>
							<path fill="#FB9952" d="M174.6,244.1c0.2,0,0.4-0.1,0.5-0.3c1.1-2.5,3.3-4.5,5.9-5.3c0.3-0.1,0.5-0.4,0.4-0.7
								c-0.4-1.7-0.9-3.4-2.3-4.7c-1.5-1.4-3.6-1.9-5.4-1.5c-2,0.5-3.5,2.4-3.5,4.4c0,0.3,0.3,0.6,0.6,0.6s0.6-0.3,0.6-0.6
								c0-1.4,1.1-2.8,2.6-3.2c1.4-0.4,3.1,0.1,4.3,1.2c1.1,1,1.5,2.2,1.8,3.6c-2.7,1-4.9,3.1-6.1,5.8c-0.1,0.3,0,0.6,0.3,0.8
								C174.5,244.1,174.5,244.1,174.6,244.1z"/>
							<path fill="#FB9952" d="M248.9,275.7c0.3,0,0.5-0.2,0.6-0.4c3.3-11.7,11.8-24.1,21.6-31.5c0.3-0.2,0.3-0.6,0.1-0.8
								c-0.2-0.3-0.6-0.3-0.8-0.1c-10.1,7.5-18.7,20.1-22,32.1C248.3,275.3,248.5,275.6,248.9,275.7
								C248.8,275.7,248.9,275.7,248.9,275.7z"/>
							<g>
								<path fill="#FDB47D" d="M169.4,218c-0.3-3.8,0.5-7.8,2.4-11.2c0.6-1.1,1.4-2.2,2.5-2.9c2.1-1.2,4.8-0.4,6.7,1
									c4.4,3.2,6.2,9.5,4.3,14.6c-1.4,3.7-6.2,5.1-10.1,4.7c-1-0.1-2-0.4-2.9-0.9C170.3,222.1,169.6,220.5,169.4,218z"/>
							</g>
							<path fill="#FB9952" d="M170.8,219.2c0.2,0,0.5-0.1,0.6-0.4c1.3-3.6,4.6-6.6,8.4-7.5c0.2,0,0.4-0.2,0.4-0.4
								c0.1-0.2,0-0.4-0.2-0.6c-1.5-1.4-3.4-1.8-5.4-1c-1.9,0.8-3.3,2.4-4.3,3.7c-0.2,0.3-0.2,0.6,0.1,0.8s0.6,0.2,0.8-0.1
								c0.9-1.2,2.2-2.6,3.9-3.3c1.1-0.5,2.2-0.4,3.2,0.1c-3.6,1.3-6.7,4.2-8,7.9c-0.1,0.3,0,0.6,0.4,0.7
								C170.7,219.1,170.8,219.2,170.8,219.2z"/>
							<g>
								<path fill="#FDB47D" d="M183.2,182.2c-0.8-1.3-2-2.5-3.5-2.8c-1-0.2-2.1,0.1-3,0.4c-2.4,0.9-4.7,2.2-6.6,4
									c-1.1,1-2,2.1-2.3,3.5c-0.5,2.3,1.2,4.6,3.1,6.1c2,1.6,4.5,2.8,7,3.4c2.5,0.6,3.8,0.8,5.2-1.5
									C185.4,191.5,185.6,186.2,183.2,182.2z"/>
							</g>
							<path fill="#FB9952" d="M270.8,243.9c0.1,0,0.1,0,0.2,0c0.3-0.1,0.5-0.4,0.4-0.7c-1.8-6.5-2.7-13.2-2.7-20
								c0-0.3-0.3-0.6-0.6-0.6l0,0c-0.3,0-0.6,0.3-0.6,0.6c0,6.9,0.9,13.7,2.8,20.3C270.3,243.8,270.5,243.9,270.8,243.9z"/>
						</g>
					</g>
					<g>
						<path fill="#5271FF" d="M222.6,194.5H60.8c-11.4,0-20.7-9.3-20.7-20.7V130c0-11.4,9.3-20.7,20.7-20.7h161.8
							c11.4,0,20.7,9.3,20.7,20.7v43.8C243.3,185.3,234.1,194.5,222.6,194.5z"/>
						<g enable-background="new    ">
							<path fill="#FFFFFF" d="M89.1,162.1c0.7,0.6,1.7,0.9,3,0.9c1.6,0,2.8-0.7,3.5-2s1.1-3.6,1.1-6.7c-0.6,0.8-1.4,1.5-2.5,1.9
								c-1.1,0.5-2.2,0.7-3.5,0.7c-1.7,0-3.1-0.3-4.5-1c-1.3-0.7-2.4-1.7-3.2-3.1c-0.8-1.4-1.2-3-1.2-4.9c0-2.9,0.9-5.1,2.6-6.8
								s4-2.5,7-2.5c3.7,0,6.3,1.2,7.8,3.5s2.3,5.9,2.3,10.6c0,3.4-0.3,6.1-0.9,8.2c-0.6,2.1-1.6,3.8-3,4.9
								c-1.4,1.1-3.3,1.7-5.8,1.7c-1.9,0-3.5-0.4-4.9-1.1c-1.3-0.7-2.4-1.7-3.1-2.9s-1.1-2.5-1.2-4h5
								C87.9,160.6,88.3,161.4,89.1,162.1z M94.9,151.2c0.8-0.8,1.2-1.9,1.2-3.3c0-1.5-0.4-2.7-1.2-3.5s-1.9-1.3-3.3-1.3
								s-2.5,0.4-3.3,1.3c-0.8,0.9-1.2,2-1.2,3.4s0.4,2.5,1.2,3.4s2,1.3,3.5,1.3C93.1,152.5,94.2,152.1,94.9,151.2z"/>
							<path fill="#FFFFFF" d="M108.1,142.4c1.6-2.5,4.3-3.8,8-3.8s6.4,1.3,8,3.8s2.4,6,2.4,10.5s-0.8,8-2.4,10.6s-4.3,3.8-8,3.8
								s-6.4-1.3-8-3.8c-1.6-2.6-2.4-6.1-2.4-10.6C105.6,148.4,106.4,144.9,108.1,142.4z M120.8,148.1c-0.2-1.3-0.7-2.4-1.5-3.2
								c-0.7-0.8-1.8-1.2-3.3-1.2c-1.4,0-2.5,0.4-3.3,1.2c-0.7,0.8-1.2,1.9-1.5,3.2c-0.2,1.3-0.4,2.9-0.4,4.8c0,2,0.1,3.6,0.3,4.9
								c0.2,1.3,0.7,2.4,1.5,3.2c0.7,0.8,1.8,1.2,3.3,1.2c1.4,0,2.5-0.4,3.3-1.2s1.2-1.9,1.5-3.2c0.2-1.3,0.3-3,0.3-4.9
								C121.2,151,121.1,149.4,120.8,148.1z"/>
							<path fill="#FFFFFF" d="M131.5,146.2c0-1.4,0.4-2.7,1.1-3.8c0.7-1.1,1.8-2.1,3.2-2.7c1.4-0.7,3.2-1,5.2-1
								c2.1,0,3.8,0.3,5.2,1s2.5,1.6,3.2,2.7c0.7,1.1,1.1,2.4,1.1,3.8c0,1.4-0.3,2.7-1,3.7c-0.7,1.1-1.6,1.9-2.8,2.5
								c1.4,0.6,2.5,1.5,3.3,2.7s1.2,2.6,1.2,4.2c0,1.8-0.4,3.3-1.3,4.6c-0.9,1.3-2.1,2.3-3.7,3c-1.5,0.7-3.3,1-5.2,1
								s-3.7-0.3-5.2-1s-2.8-1.7-3.6-3c-0.9-1.3-1.3-2.8-1.3-4.6c0-1.6,0.4-3,1.2-4.2s1.9-2.1,3.3-2.7
								C132.8,151.1,131.5,149,131.5,146.2z M137.5,155.9c-0.9,0.7-1.4,1.8-1.4,3.2c0,1.3,0.4,2.3,1.3,3.2c0.9,0.8,2.1,1.2,3.6,1.2
								s2.7-0.4,3.6-1.2c0.9-0.8,1.3-1.9,1.3-3.1c0-1.4-0.5-2.4-1.4-3.2s-2.1-1.1-3.6-1.1S138.4,155.2,137.5,155.9z M144.2,144
								c-0.8-0.7-1.8-1-3.1-1s-2.3,0.3-3.1,1s-1.1,1.7-1.1,3c0,1.2,0.4,2.1,1.2,2.8s1.8,1,3,1s2.3-0.4,3.1-1.1
								c0.8-0.7,1.2-1.6,1.2-2.8C145.3,145.7,144.9,144.7,144.2,144z"/>
							<path fill="#FFFFFF" d="M156.2,166.7c-0.6-0.6-0.9-1.4-0.9-2.3c0-0.9,0.3-1.7,0.9-2.3c0.6-0.6,1.4-0.9,2.4-0.9
								s1.7,0.3,2.4,0.9s0.9,1.4,0.9,2.3c0,0.9-0.3,1.7-0.9,2.3s-1.4,0.9-2.4,0.9C157.6,167.6,156.8,167.3,156.2,166.7z"/>
							<path fill="#FFFFFF" d="M166.2,166.7c-0.6-0.6-0.9-1.4-0.9-2.3c0-0.9,0.3-1.7,0.9-2.3c0.6-0.6,1.4-0.9,2.4-0.9
								s1.7,0.3,2.4,0.9s0.9,1.4,0.9,2.3c0,0.9-0.3,1.7-0.9,2.3s-1.4,0.9-2.4,0.9C167.7,167.6,166.9,167.3,166.2,166.7z"/>
							<path fill="#FFFFFF" d="M176.3,166.7c-0.6-0.6-0.9-1.4-0.9-2.3c0-0.9,0.3-1.7,0.9-2.3c0.6-0.6,1.4-0.9,2.4-0.9
								s1.7,0.3,2.4,0.9s0.9,1.4,0.9,2.3c0,0.9-0.3,1.7-0.9,2.3s-1.4,0.9-2.4,0.9C177.7,167.6,176.9,167.3,176.3,166.7z"/>
							<path fill="#FFFFFF" d="M186.4,166.7c-0.6-0.6-0.9-1.4-0.9-2.3c0-0.9,0.3-1.7,0.9-2.3c0.6-0.6,1.4-0.9,2.4-0.9
								s1.7,0.3,2.4,0.9s0.9,1.4,0.9,2.3c0,0.9-0.3,1.7-0.9,2.3s-1.4,0.9-2.4,0.9C187.8,167.6,187,167.3,186.4,166.7z"/>
							<path fill="#FFFFFF" d="M196.4,166.7c-0.6-0.6-0.9-1.4-0.9-2.3c0-0.9,0.3-1.7,0.9-2.3c0.6-0.6,1.4-0.9,2.4-0.9
								s1.7,0.3,2.4,0.9c0.6,0.6,0.9,1.4,0.9,2.3c0,0.9-0.3,1.7-0.9,2.3c-0.6,0.6-1.4,0.9-2.4,0.9
								C197.9,167.6,197.1,167.3,196.4,166.7z"/>
						</g>
					</g>
					<g>
						<g>
							<path fill="#FDB47D" d="M128.5,369.7c10.5,1.2,21.4-1.4,30.3-7.1c4.6-3,8.6-6.7,12.8-10.2c5.3-4.4,11-8.6,16.7-12.6
								c4.2-2.9,7.4-6.9,9.3-11.6c1.9-4.6,4.4-8.9,6.8-13.2c4.6-8,8.8-16,13.3-24c1-1.8,2.6-3.3,4.5-4.3l7.9-4
								c1.2-0.6,1.9-1.9,1.7-3.3c-0.7-4.2-4.8-7.3-9.3-7.7c-5.3-0.5-10.5,2-15,4.9c-8.5,5.5-15.9,12.6-21.6,20.9
								c-15.3,5.3-28.4,14.8-38.6,27.4C137,337.5,130.5,353.6,128.5,369.7z"/>
						</g>
						<g>
							<g>
								<path fill="#FDB47D" d="M77.8,351.5c14.6,11.5,33.7,16.8,52.2,14.9c18.4-1.8,38.1-8.8,48.7-24c15-21.6,24.4-47.1,26.9-73.3
									c-5.6-2.3-12.2-2.2-18.2-2.7c-1.3-0.1-2.6-0.3-3.6-1.2c-0.7-3.8,1-7.8-1.2-10.9c-0.9-1.3-2.3-2.1-3.8-2.8
									c-3.4-1.5-7.1-2.3-10.7-2.3c-1.2,0-2.4,0.1-3.6,0.5c-3.1,1.2-4.9,4.4-6.3,7.4c-1.7-5.1-7-7.8-12.4-7.7s-10.4,2.5-15.1,5
									c-7.8-4.4-17.8-3.2-24.1,3.2c-3.4,3.5-5.5,8-7.5,12.4c-5.6,12.2-11.1,24.4-16.7,36.6C76.1,320.4,75.3,336.6,77.8,351.5z"/>
							</g>
						</g>
						<g>
							<path fill="#FDB47D" d="M171.7,288.6c12.9-19.5,25.8-39.1,34.8-60.6c2.1-5.1,4-10.3,6.2-15.4c1.4-3.1,2.9-6.1,5.3-8.5
								c2.4-2.3,5.9-3.8,9.2-3.1s5.8,3.7,5.5,7c-0.9,10.8-4.5,21.2-8,31.5c-1.2,3.6-2.4,7.1-3.9,10.5c-3.4,7.8-8.2,14.9-11.9,22.5
								c-5.3,11.1-8,23.6-15.1,33.6c-2.7,3.9-6.3,7.4-10.8,8.9c-3.4-1.1-6.5-2.3-9.1-4.8s-3.8-6.3-3.9-9.9
								C169.9,296.7,169.7,291.6,171.7,288.6z"/>
						</g>
						<g>
							<path fill="#FB9952" d="M220.8,216.4c1.4,0.6,3.1,0.8,4.6,0.4c3.1-0.8,5.3-3.5,5.9-7.4c0-0.3-0.2-0.6-0.5-0.6
								s-0.6,0.2-0.6,0.5c-0.6,3.4-2.4,5.8-5.1,6.5c-2.3,0.6-4.7-0.2-6.1-2c-1.5-1.9-1.4-4.5,0.1-7.3c0.1-0.3,0-0.6-0.2-0.8
								c-0.3-0.1-0.6,0-0.8,0.2c-1.7,3.2-1.7,6.3,0,8.5C218.9,215.3,219.8,216,220.8,216.4z"/>
						</g>
						<g>
							<path fill="#FB9952" d="M219.6,247.5c0.2,0.1,0.3,0.1,0.5,0c0.3-0.2,0.4-0.5,0.2-0.8c-3-5.2-8.8-8.5-14.8-8.4
								c-0.3,0-0.6,0.3-0.5,0.6c0,0.3,0.3,0.6,0.6,0.5c5.5-0.1,11.1,3.1,13.8,7.8C219.4,247.4,219.5,247.5,219.6,247.5z"/>
						</g>
						<g>
							<path fill="#FB9952" d="M207.9,250.1c3.2,1.4,6.7,1.7,10.1,0.9c0.3-0.1,0.5-0.4,0.4-0.7s-0.4-0.5-0.7-0.4
								c-5.5,1.4-11.7-0.8-15.1-5.2c-0.2-0.2-0.5-0.3-0.8-0.1c-0.2,0.2-0.3,0.5-0.1,0.8C203.3,247.4,205.4,249,207.9,250.1z"/>
						</g>
						<g>
							<g>
								<path fill="#FDB47D" d="M3.5,455.3c11.2-16.6,22.4-33.3,33.6-49.9c5.6-8.3,11.2-16.7,16-25.5c2.8-5.3,5.3-10.7,7.8-16.1
									c5.9-12.8,11.5-25.3,17.4-38.1c29.3-2,56.7,16.5,73.2,40.7c-14.5,5.5-22,25.3-28.8,37.4c-13.8,24.6-25.2,50.4-34.8,76.9
									c-18.9,3.2-37.9,2.1-56-4.1C20.2,472.7,10.6,465.3,3.5,455.3z"/>
							</g>
						</g>
						<g>
							<g>
								<path fill="#FB9952" d="M218.4,286.7c0.1,0,0.2,0.1,0.3,0c0.3,0,0.5-0.3,0.5-0.6c-0.2-1.7,0.3-3.2,0.9-4.3
									c0.4-0.8,0.9-1.6,1.4-2.3c0.7-1,1.9-1.5,3.1-1.4c1.9,0.2,3.6,1.1,4.8,2.4c0.2,0.2,0.6,0.3,0.8,0.1c0.2-0.2,0.3-0.6,0.1-0.8
									c-1.3-1.6-3.4-2.6-5.5-2.8c-1.6-0.2-3.2,0.5-4.1,1.9c-0.6,0.8-1.1,1.6-1.5,2.5c-0.8,1.7-1.2,3.4-1,4.9
									C218.1,286.5,218.2,286.6,218.4,286.7z"/>
							</g>
						</g>
						<g>
							<g>
								<path fill="#FB9952" d="M173.2,344.8c0.2,0.1,0.5,0,0.6-0.1c2.5-2.9,4.8-6.1,6.9-9.9c7.5-13.5,13.8-27.5,20-41.1
									c3.4-7.5,6.9-15.3,10.6-22.9c2.2-5.2,4.3-10.1,7.2-15.3c0.1-0.3,0-0.6-0.2-0.8c-0.3-0.1-0.6,0-0.8,0.2
									c-2.8,5.2-4.9,10.1-7.2,15.4c-3.7,7.6-7.2,15.3-10.6,22.9c-6.1,13.6-12.4,27.6-19.9,41c-2,3.8-4.2,6.9-6.7,9.7
									c-0.2,0.2-0.2,0.6,0,0.8C173.1,344.7,173.1,344.7,173.2,344.8z"/>
							</g>
						</g>
						<g>
							<g>
								<path fill="#FB9952" d="M194.8,333.5c0.2,0.1,0.5,0,0.7-0.2c2.5-3.5,4.6-8.1,6.5-12.1c1-2.2,2-4.3,2.9-5.9
									c2.6-4.5,5.1-9,7.5-13.4c1.9-3.5,3.9-7.1,5.9-10.6c1-1.7,2.5-3.1,4.3-4.1l7.9-4c1.4-0.7,2.2-2.3,2-3.9
									c-0.7-4.2-4.9-7.7-9.8-8.2c-5.9-0.6-10.7,2-14.7,4.5c-0.3,0.2-0.3,0.5-0.2,0.8c0.2,0.3,0.5,0.3,0.8,0.2
									c4-2.6,8.5-4.9,14-4.4c4.5,0.5,8.2,3.5,8.8,7.3c0.2,1.1-0.4,2.2-1.4,2.7l-7.9,4c-2,1-3.6,2.6-4.7,4.5c-2,3.5-4,7.1-5.9,10.6
									c-2.4,4.4-4.9,8.9-7.5,13.4c-0.9,1.6-1.9,3.7-2.9,6c-1.9,4-4,8.6-6.4,11.9c-0.2,0.2-0.1,0.6,0.1,0.8
									C194.7,333.4,194.8,333.4,194.8,333.5z"/>
							</g>
						</g>
						<g>
							<g>
								<path fill="#FB9952" d="M185.2,267c0.1,0,0.1,0.1,0.2,0.1c0.7,0.1,1.5-0.4,2.4-1.6l0,0c3.9-6.4,7.9-12.9,10.9-19.8
									c0.1-0.3,0-0.6-0.3-0.7c-0.3-0.1-0.6,0-0.7,0.3c-3,6.8-7,13.4-10.9,19.7c-0.8,1-1.2,1.2-1.3,1.1c0,0-0.1-0.1-0.2-0.5v-0.1
									c-0.7-1.5-0.8-3.2-0.9-5c-0.1-2.5-0.2-5.2-2.3-7.3c-0.2-0.2-0.6-0.2-0.8,0s-0.2,0.6,0,0.8c1.8,1.8,1.9,4.1,1.9,6.5
									c0.1,1.8,0.1,3.7,0.9,5.4C184.5,266.4,184.8,266.8,185.2,267z"/>
							</g>
						</g>
					</g>
				</g>
			</g>
		</g>
	</g>
</g>
</svg>
